<?xml version="1.0" standalone="no"?>
<!DOCTYPE svg PUBLIC "-//W3C//DTD SVG 20010904//EN"
 "http://www.w3.org/TR/2001/REC-SVG-20010904/DTD/svg10.dtd">
<svg version="1.0" xmlns="http://www.w3.org/2000/svg"
 width="1080.000000pt" height="1080.000000pt" viewBox="0 0 1080.000000 1080.000000"
 preserveAspectRatio="xMidYMid meet">
<metadata>
Created by potrace 1.14, written by Peter Selinger 2001-2017
</metadata>
<g transform="translate(0.000000,1080.000000) scale(0.100000,-0.100000)"
fill="#000000" stroke="none">
<path d="M1986 9723 c-3 -7 -2 -13 3 -13 4 0 18 -22 31 -50 13 -27 27 -50 32
-50 4 0 8 -3 7 -7 -2 -14 13 -53 20 -53 4 0 8 -10 8 -22 1 -13 7 -24 13 -26 5
-2 10 -15 10 -28 0 -13 5 -24 12 -24 6 0 8 -3 5 -7 -4 -3 -2 -12 4 -20 6 -7 8
-13 4 -13 -4 0 -2 -6 4 -14 6 -8 13 -28 14 -45 1 -17 6 -31 11 -31 5 0 6 -3 3
-7 -4 -3 -2 -12 3 -19 6 -6 10 -16 9 -20 -2 -5 1 -35 5 -66 6 -39 12 -56 20
-51 8 5 8 3 1 -8 -6 -8 -9 -25 -8 -39 1 -14 4 -44 6 -67 2 -27 0 -43 -7 -43
-7 0 -7 -3 -1 -8 12 -8 14 -77 3 -88 -4 -4 -3 -13 3 -21 6 -7 7 -13 2 -13 -8
0 -13 -32 -16 -97 0 -7 -3 -13 -6 -13 -3 0 -7 -15 -8 -33 -3 -34 -6 -53 -16
-77 -3 -8 -8 -28 -11 -45 -7 -34 -14 -59 -16 -62 -2 -2 -3 -7 -4 -12 0 -5 -4
-13 -8 -17 -5 -4 -8 -18 -8 -31 0 -12 -5 -23 -11 -23 -5 0 -8 -4 -5 -9 3 -5
-1 -22 -9 -38 -8 -16 -16 -40 -17 -54 -2 -13 -7 -27 -12 -31 -5 -3 -11 -17
-13 -29 -2 -13 -10 -30 -18 -39 -8 -9 -15 -23 -15 -31 0 -9 -9 -33 -19 -56
-11 -22 -21 -46 -23 -54 -2 -8 -5 -16 -8 -19 -11 -11 -48 -90 -39 -85 5 4 6
-1 3 -9 -3 -9 -10 -16 -15 -16 -5 0 -8 -3 -7 -7 1 -8 -5 -25 -30 -83 -9 -19
-17 -39 -18 -45 -1 -5 -3 -14 -4 -20 -1 -5 -2 -13 -1 -17 0 -5 -3 -8 -8 -8 -5
0 -11 -10 -14 -22 -3 -13 -11 -41 -17 -63 -6 -22 -13 -47 -14 -55 -2 -8 -6
-22 -9 -30 -8 -19 -17 -65 -22 -105 -1 -16 -4 -30 -5 -30 -1 0 -3 -18 -4 -40
-1 -23 -6 -46 -10 -53 -4 -7 -4 -12 1 -12 4 0 8 -38 7 -85 0 -47 3 -85 7 -85
4 0 6 -8 5 -17 -2 -10 1 -31 6 -48 12 -38 20 -76 21 -92 0 -7 4 -13 9 -13 4 0
8 -11 8 -25 0 -14 5 -25 10 -25 6 0 10 -6 8 -12 -2 -13 58 -139 72 -148 4 -3
13 -16 20 -30 7 -14 59 -95 116 -180 85 -129 229 -390 239 -434 1 -6 5 -18 8
-26 3 -8 9 -28 13 -45 4 -16 8 -32 9 -35 0 -3 5 -23 10 -45 4 -22 10 -47 12
-55 15 -70 19 -213 8 -300 -4 -30 -7 -65 -8 -77 0 -13 -4 -23 -7 -23 -3 0 -6
-10 -7 -22 -2 -32 -12 -76 -29 -128 -9 -25 -17 -52 -19 -60 -2 -8 -9 -28 -16
-45 -7 -16 -13 -33 -13 -37 -1 -3 -4 -10 -8 -14 -5 -4 -8 -16 -8 -26 0 -10 -5
-18 -12 -18 -6 0 -8 -3 -5 -6 3 -4 1 -16 -5 -28 -7 -11 -11 -24 -10 -28 1 -5
-2 -8 -7 -8 -5 0 -12 -11 -15 -25 -4 -14 -11 -25 -17 -25 -6 0 -7 -5 -4 -10 3
-6 -1 -17 -9 -26 -9 -9 -14 -20 -11 -25 4 -5 1 -9 -4 -9 -6 0 -11 -7 -11 -15
0 -8 -4 -15 -10 -15 -5 0 -10 -6 -11 -12 0 -7 -12 -37 -27 -65 -64 -124 -106
-208 -107 -213 -1 -3 -14 -30 -30 -60 -16 -30 -29 -57 -30 -60 0 -3 -9 -21
-20 -40 -11 -19 -18 -38 -17 -42 1 -5 -3 -8 -9 -8 -5 0 -8 -4 -4 -9 3 -5 -1
-15 -8 -23 -14 -14 -16 -17 -24 -48 -3 -11 -9 -20 -14 -20 -5 0 -9 -6 -9 -12
0 -7 -11 -35 -25 -63 -13 -27 -25 -56 -25 -62 0 -7 -4 -13 -10 -13 -5 0 -10
-7 -10 -15 0 -8 -4 -23 -10 -33 -22 -41 -53 -118 -51 -129 1 -7 -3 -13 -9 -13
-5 0 -9 -3 -9 -7 1 -5 1 -10 -1 -13 -1 -3 -3 -15 -6 -27 -8 -44 -9 -48 -16
-54 -4 -3 -9 -18 -12 -35 -2 -16 -8 -42 -15 -57 -6 -15 -10 -31 -10 -35 1 -4
0 -10 -1 -14 -1 -5 -4 -12 -5 -18 -1 -5 -3 -11 -5 -12 -6 -8 -23 -118 -24
-155 -1 -18 -4 -33 -7 -33 -3 0 -6 -24 -7 -52 -4 -149 -11 -268 -17 -278 -3
-5 -1 -10 5 -10 7 0 8 -6 1 -19 -6 -10 -7 -21 -4 -25 3 -3 8 -58 10 -123 2
-72 8 -122 16 -132 10 -12 9 -13 -1 -7 -13 8 -13 0 5 -71 3 -16 5 -32 4 -37
-1 -5 1 -16 5 -25 4 -9 8 -25 9 -36 1 -11 8 -40 15 -65 17 -58 16 -52 24 -72
4 -9 9 -22 10 -30 2 -7 9 -26 16 -43 7 -16 14 -34 14 -39 1 -5 6 -11 13 -13 7
-3 10 10 8 41 -2 40 14 186 29 272 17 93 125 290 205 373 44 46 51 49 51 22 0
-10 14 -72 30 -137 17 -65 32 -129 34 -141 3 -12 10 -32 17 -45 7 -12 12 -24
11 -26 -1 -1 5 -18 13 -38 8 -20 15 -40 15 -45 0 -4 5 -11 12 -15 7 -5 9 -2 5
8 -3 9 -3 19 1 23 3 3 7 16 8 28 1 19 6 47 20 117 2 8 5 26 6 40 2 14 5 27 8
30 6 5 28 76 30 95 1 6 7 17 15 25 7 8 16 26 20 40 9 31 66 143 76 150 4 3 9
12 11 19 2 8 9 21 16 30 7 9 33 44 58 79 25 34 61 78 79 96 18 19 31 37 27 40
-3 3 0 6 6 6 6 0 33 23 61 50 28 27 55 50 60 50 6 0 17 10 25 22 9 12 16 18
16 13 0 -6 6 -3 13 5 15 19 89 66 100 62 4 -1 7 3 7 8 0 6 17 18 38 28 20 9
39 19 42 22 9 10 134 62 155 65 11 2 25 4 30 5 36 8 50 -1 51 -33 2 -61 13
-144 23 -169 5 -14 7 -28 4 -31 -3 -3 0 -28 6 -54 6 -26 13 -57 16 -68 3 -18
18 -60 59 -170 8 -22 26 -64 40 -92 15 -29 26 -55 26 -58 -1 -6 32 -67 40 -75
3 -3 13 -21 23 -40 30 -59 52 -95 60 -98 4 -2 7 -10 7 -18 0 -8 4 -14 8 -14 4
0 15 -12 24 -28 9 -15 26 -38 37 -52 104 -123 162 -188 252 -281 37 -37 64
-71 61 -74 -3 -3 2 -5 11 -5 8 0 19 -9 22 -20 3 -11 11 -20 16 -20 11 0 89
-81 89 -92 0 -5 7 -8 17 -8 9 0 14 -3 11 -6 -3 -3 12 -24 34 -47 57 -59 153
-182 147 -189 -1 -2 12 -18 29 -37 17 -19 29 -38 26 -43 -3 -4 -1 -8 5 -8 6 0
13 -11 17 -25 3 -14 13 -25 21 -25 8 0 11 -4 8 -10 -3 -5 -1 -10 4 -10 6 0 10
-3 9 -8 -2 -4 13 -32 32 -62 19 -30 39 -64 45 -75 28 -49 40 -70 45 -75 3 -3
18 -31 34 -62 15 -32 31 -58 36 -58 5 0 7 -7 4 -15 -4 -8 -1 -15 5 -15 6 0 11
-6 11 -14 0 -7 7 -19 15 -26 8 -7 15 -19 15 -28 0 -8 10 -23 22 -33 11 -11 18
-19 14 -19 -8 0 53 -89 88 -128 76 -85 226 -228 226 -215 0 3 15 -6 34 -21 19
-14 39 -26 45 -26 6 0 11 -4 11 -10 0 -5 9 -10 20 -10 11 0 20 -4 20 -8 0 -11
80 -45 98 -43 6 1 12 -3 12 -9 0 -6 5 -8 10 -5 5 3 10 2 10 -4 0 -6 7 -8 15
-5 8 4 15 1 15 -4 0 -6 9 -9 20 -7 11 2 20 1 20 -3 0 -4 8 -8 18 -9 9 0 46 -4
82 -9 74 -8 275 -8 335 1 22 3 54 7 70 9 17 2 44 9 60 16 17 6 37 13 46 15 9
2 25 8 35 13 11 5 35 17 54 26 63 29 166 94 213 134 43 37 157 151 157 158 0
3 10 15 23 27 12 12 36 42 52 67 17 25 33 47 38 48 4 2 5 8 1 13 -3 5 1 12 10
15 8 3 18 19 21 35 4 16 11 29 16 29 5 0 11 11 15 25 3 13 12 29 20 36 8 6 12
15 9 19 -2 4 5 17 16 29 11 12 18 25 15 30 -3 5 1 12 10 15 8 3 13 10 10 15
-4 5 -2 11 3 13 5 1 11 10 13 18 2 8 11 23 21 34 9 11 17 26 17 33 0 7 5 13
10 13 6 0 10 4 10 10 0 12 70 123 82 131 6 3 9 10 8 14 -2 4 12 28 31 53 18
26 33 51 34 55 0 4 5 11 10 15 6 4 26 30 45 57 42 61 63 86 117 142 23 24 40
43 37 43 -3 0 7 11 22 25 15 14 30 25 35 25 4 0 11 9 14 20 3 11 13 20 21 20
8 0 14 4 14 9 0 13 83 96 93 93 4 -1 7 3 7 9 0 6 16 25 35 43 19 19 35 37 35
42 0 5 13 18 29 29 16 10 27 23 25 27 -3 5 2 11 10 14 9 3 16 13 16 21 0 8 5
11 10 8 6 -3 10 -2 10 3 0 5 14 23 30 40 17 18 30 34 30 37 0 3 8 13 18 23 9
10 26 31 37 46 11 16 25 34 30 40 24 29 98 159 98 173 0 7 4 10 9 7 4 -3 8 0
8 5 0 22 2 26 16 42 8 9 11 19 7 22 -3 4 -1 7 5 7 7 0 12 9 12 20 0 11 5 20
10 20 6 0 10 6 10 13 0 6 7 25 15 41 8 15 12 32 9 37 -3 5 0 9 5 9 6 0 11 5
11 11 0 6 6 25 14 42 16 35 38 104 42 127 1 8 5 29 9 45 4 17 8 41 10 55 2 14
5 25 6 25 1 0 3 14 4 30 2 17 4 30 5 30 2 0 11 90 13 132 2 30 8 37 28 35 4
-1 23 -2 43 -4 20 -1 36 -6 36 -10 0 -4 3 -7 8 -6 4 1 18 -3 32 -9 14 -6 29
-11 34 -11 5 0 12 -5 16 -12 4 -6 16 -12 28 -13 12 0 24 -7 27 -15 3 -7 9 -10
15 -7 5 3 10 1 10 -4 0 -6 9 -11 21 -11 11 0 18 -4 15 -8 -3 -5 17 -19 44 -33
27 -13 50 -30 50 -36 0 -7 6 -13 13 -13 7 0 27 -13 45 -29 17 -17 32 -27 32
-24 0 4 35 -30 78 -74 83 -85 142 -152 142 -160 0 -2 11 -19 25 -37 14 -18 25
-38 25 -44 0 -7 5 -12 10 -12 6 0 10 -7 10 -15 0 -8 4 -15 8 -15 4 0 19 -25
32 -55 13 -30 28 -55 32 -55 4 0 8 -9 8 -20 0 -11 4 -20 10 -20 5 0 7 -7 4
-15 -4 -8 -1 -15 7 -15 7 0 9 -3 6 -7 -4 -3 -3 -11 2 -17 8 -10 29 -70 35 -99
2 -7 6 -19 9 -27 3 -8 8 -31 12 -50 4 -19 9 -48 12 -65 4 -16 7 -47 7 -67 1
-21 4 -38 8 -38 19 0 59 103 93 240 8 30 19 74 24 98 6 23 14 59 17 80 3 20 8
39 10 41 6 6 85 -83 122 -139 105 -157 147 -298 157 -524 2 -42 6 -80 9 -83 3
-4 6 1 6 10 0 9 11 41 25 72 13 30 24 56 23 58 0 1 6 22 13 47 15 55 14 52 22
70 3 8 5 22 6 30 0 15 8 55 11 55 1 0 9 73 14 127 1 15 5 31 9 34 4 4 2 13 -4
21 -6 7 -7 13 -2 13 12 0 14 408 2 415 -4 3 -4 17 1 30 5 13 6 27 1 29 -4 3
-7 24 -7 46 1 23 -2 43 -5 46 -4 2 -5 13 -2 23 3 10 0 28 -6 40 -9 16 -9 21 1
21 10 0 10 2 0 9 -8 4 -13 10 -11 12 2 4 -6 51 -17 99 -3 14 -6 31 -6 38 -1 6
-5 12 -9 12 -4 0 -6 9 -4 20 2 11 -1 22 -6 25 -5 4 -7 11 -4 16 4 5 2 9 -2 9
-8 0 -12 15 -15 58 -1 6 -5 12 -10 12 -4 0 -7 3 -6 8 3 9 -20 78 -40 122 -9
19 -16 37 -17 40 0 6 -19 46 -81 176 -24 51 -44 97 -44 103 0 6 -4 11 -9 11
-8 0 -24 37 -22 53 1 4 -4 7 -10 7 -5 0 -7 5 -4 10 3 5 1 10 -4 10 -6 0 -11 9
-11 20 0 11 -4 20 -8 20 -4 0 -14 17 -21 38 -8 20 -20 45 -28 54 -8 9 -12 21
-9 26 3 6 -1 13 -9 16 -8 3 -15 9 -14 13 2 15 -13 53 -22 53 -5 0 -9 8 -9 18
0 10 -6 24 -12 31 -7 6 -13 15 -14 19 -1 11 -17 47 -23 52 -11 9 -51 95 -51
108 0 6 -4 12 -9 12 -5 0 -15 16 -22 35 -7 19 -17 35 -21 35 -4 0 -8 6 -8 13
0 6 -14 39 -30 71 -17 32 -30 65 -30 73 0 7 -7 25 -16 38 -9 14 -13 25 -9 25
4 0 2 6 -4 13 -6 8 -12 22 -14 33 -1 10 -7 26 -12 34 -6 8 -10 24 -10 35 0 11
-3 25 -6 30 -7 11 -20 58 -25 90 -2 11 -6 31 -8 45 -14 77 -17 104 -17 190 -1
88 11 215 21 215 1 0 3 9 4 20 2 11 7 36 11 55 5 19 10 38 11 43 1 4 3 9 4 12
3 5 3 6 15 50 4 17 14 37 21 45 7 8 13 18 13 22 2 18 36 88 43 88 5 0 8 7 8
16 0 14 104 201 119 214 3 3 11 13 16 22 6 9 28 43 50 75 46 66 53 78 79 124
10 19 25 38 33 42 7 5 11 12 8 18 -4 5 -1 9 6 9 7 0 9 3 6 7 -4 3 -1 13 7 22
16 19 66 143 66 165 0 9 4 16 8 16 7 0 12 24 15 68 0 6 3 12 7 12 3 0 6 8 7
18 2 49 11 110 17 120 4 7 3 12 -1 12 -10 0 -9 53 2 69 3 6 3 11 -2 11 -4 0
-9 28 -10 63 -3 54 -8 102 -13 102 -1 0 -3 10 -6 23 -9 49 -11 58 -18 74 -4 9
-5 21 -2 26 3 6 0 12 -8 15 -7 3 -13 18 -14 34 0 15 -11 51 -23 78 -12 28 -22
53 -21 57 1 4 -11 33 -25 65 -15 32 -28 60 -28 63 -1 3 -9 23 -19 45 -10 22
-19 46 -20 53 -1 8 -7 17 -12 20 -5 4 -10 14 -12 22 -2 8 -12 34 -22 57 -11
24 -20 47 -20 53 0 5 -5 10 -11 10 -5 0 -8 4 -4 10 3 5 1 17 -5 27 -14 26 -34
77 -32 86 1 4 -3 7 -10 7 -6 0 -9 2 -6 5 6 6 -34 141 -45 152 -4 3 -7 19 -7
34 0 15 -4 30 -10 34 -5 3 -7 12 -3 20 3 8 1 15 -3 15 -5 0 -10 10 -11 23 -1
12 -5 38 -8 57 -4 19 -8 49 -10 66 -1 17 -6 41 -10 53 -7 25 -8 240 -1 291 3
19 8 51 10 70 3 19 10 50 15 68 5 17 7 32 4 32 -3 0 0 6 6 13 6 8 8 17 4 20
-3 4 -1 12 4 19 13 18 37 100 34 117 -1 7 2 10 8 6 6 -3 11 -1 11 6 0 13 69
161 79 169 5 4 18 28 38 72 2 4 -15 1 -38 -7 -23 -8 -50 -15 -60 -15 -11 0
-19 -4 -19 -10 0 -5 -6 -10 -14 -10 -8 0 -27 -5 -43 -12 -15 -6 -31 -12 -35
-13 -5 -2 -11 -4 -15 -5 -5 -1 -11 -2 -15 -1 -5 0 -8 -3 -8 -7 0 -5 -6 -9 -12
-10 -33 -3 -52 -10 -56 -20 -2 -6 -9 -9 -17 -6 -7 3 -16 0 -20 -5 -3 -6 -11
-9 -16 -6 -5 4 -9 1 -9 -5 0 -6 -4 -9 -8 -6 -5 3 -29 -5 -55 -18 -25 -13 -48
-22 -50 -20 -2 2 -28 -8 -58 -23 -30 -14 -60 -26 -66 -26 -7 0 -13 -4 -13 -8
0 -3 -10 -10 -22 -14 -29 -9 -23 -7 -85 -35 -29 -13 -50 -27 -48 -30 3 -4 -7
-7 -22 -7 -14 0 -32 -8 -38 -17 -7 -8 -15 -13 -18 -9 -4 3 -7 1 -7 -6 0 -7 -4
-9 -10 -6 -6 3 -10 1 -10 -4 0 -6 -7 -11 -15 -11 -8 0 -15 -5 -15 -12 0 -6 -3
-9 -6 -5 -3 3 -30 -10 -59 -29 -30 -19 -57 -34 -60 -34 -3 0 -11 -5 -18 -10
-7 -6 -50 -36 -97 -67 -47 -31 -86 -60 -88 -65 -2 -4 -8 -8 -14 -8 -5 0 -15
-6 -23 -12 -7 -7 -32 -29 -55 -48 -23 -19 -61 -52 -84 -72 -22 -21 -45 -38
-49 -38 -5 0 -5 -4 -2 -10 3 -5 1 -10 -4 -10 -14 0 -57 -43 -54 -52 2 -5 -1
-8 -6 -8 -12 0 -25 -13 -82 -80 -24 -29 -49 -58 -54 -64 -6 -6 -26 -33 -45
-61 -19 -27 -39 -53 -43 -56 -9 -6 -23 -29 -53 -86 -10 -18 -21 -33 -26 -33
-4 0 -8 -5 -8 -11 0 -6 -7 -17 -15 -25 -8 -9 -15 -24 -15 -35 0 -10 -4 -19 -9
-19 -10 0 -27 -39 -23 -52 1 -5 -2 -8 -7 -8 -4 0 -23 -34 -42 -75 -18 -41 -37
-75 -42 -75 -4 0 -6 -4 -3 -8 2 -4 -6 -29 -19 -55 -14 -26 -22 -47 -20 -47 3
0 -6 -18 -20 -40 -14 -22 -23 -40 -20 -40 3 0 -2 -15 -12 -32 -9 -18 -18 -35
-18 -38 0 -3 -6 -14 -12 -25 -6 -11 -11 -23 -12 -28 0 -4 -8 -24 -17 -45 -10
-20 -18 -40 -19 -44 -2 -5 -4 -10 -5 -13 -1 -3 -3 -10 -4 -17 0 -6 -6 -13 -12
-15 -19 -6 -7 134 15 176 9 16 8 22 -8 31 -11 5 -27 10 -35 10 -9 0 -16 5 -16
11 0 5 -4 8 -9 4 -5 -3 -12 -1 -16 5 -4 6 -11 8 -16 5 -5 -4 -9 -1 -9 5 0 7
-7 10 -15 6 -8 -3 -20 1 -27 8 -7 7 -19 11 -26 8 -6 -2 -12 1 -12 8 0 6 -5 8
-10 5 -6 -4 -17 -2 -25 5 -7 6 -24 13 -37 14 -13 2 -31 7 -40 10 -9 4 -22 8
-30 10 -7 1 -19 5 -26 10 -7 4 -16 5 -19 2 -3 -3 -12 -1 -20 5 -7 6 -13 8 -13
4 0 -4 -7 -2 -15 5 -9 7 -18 10 -22 7 -3 -4 -13 -1 -21 6 -13 10 -14 9 -7 -3
8 -13 7 -13 -8 -1 -9 7 -17 10 -17 6 0 -4 -6 -3 -12 3 -7 5 -31 12 -53 16 -52
7 -115 19 -165 31 -28 6 -101 16 -142 18 -16 1 -28 4 -28 8 0 3 -13 4 -30 3
-16 -1 -30 1 -30 4 0 16 -403 22 -510 8 -36 -4 -78 -9 -95 -11 -16 -2 -31 -4
-32 -5 -2 -2 -11 -3 -20 -4 -91 -10 -144 -19 -148 -27 -3 -4 -17 -4 -31 1 -14
6 -23 6 -20 1 3 -5 -11 -11 -32 -14 -41 -7 -77 -15 -77 -17 0 -2 -14 -4 -73
-14 -18 -3 -36 -8 -41 -10 -5 -3 -26 -8 -47 -12 -22 -3 -43 -9 -49 -12 -5 -4
-16 -8 -22 -9 -7 -2 -19 -5 -25 -6 -7 -2 -26 -7 -43 -12 -16 -4 -34 -10 -40
-14 -5 -3 -14 -6 -20 -8 -9 -1 -92 -32 -180 -66 -28 -11 -46 -37 -26 -37 12 0
24 -68 26 -138 1 -46 -1 -51 -12 -37 -7 10 -10 22 -7 26 3 5 1 9 -3 9 -5 0
-15 17 -22 38 -7 20 -26 65 -42 100 -16 34 -29 69 -29 77 0 8 -4 15 -10 15 -5
0 -10 9 -10 20 0 11 -4 20 -9 20 -8 0 -22 37 -19 50 1 3 -11 24 -25 48 -15 23
-25 42 -22 42 6 0 -84 182 -94 190 -3 3 -7 11 -9 19 -2 8 -12 27 -23 42 -10
15 -19 30 -19 34 0 4 -11 20 -25 37 -14 16 -25 36 -25 43 0 8 -6 18 -14 22 -7
4 -19 20 -27 34 -8 15 -29 45 -47 67 -19 22 -33 42 -31 44 1 2 -19 25 -44 51
-26 26 -47 50 -47 52 0 6 -148 148 -210 201 -25 21 -47 42 -48 47 -2 4 -8 5
-13 1 -5 -3 -9 3 -9 12 0 10 -3 15 -6 11 -4 -3 -12 -1 -20 6 -30 27 -46 38
-147 106 -58 39 -111 71 -116 71 -6 0 -11 3 -11 8 0 4 -10 12 -23 18 -49 23
-112 59 -115 67 -2 4 -10 7 -18 7 -8 0 -14 5 -14 12 0 6 -3 8 -6 5 -4 -4 -36
9 -71 28 -36 19 -71 35 -79 35 -8 0 -14 5 -14 10 0 6 -9 10 -20 10 -11 0 -20
5 -20 12 0 6 -3 8 -6 5 -4 -3 -16 -1 -28 5 -11 7 -23 13 -26 13 -7 2 -61 24
-85 34 -29 13 -58 24 -74 27 -8 1 -17 6 -20 11 -6 8 -27 15 -48 16 -7 0 -13 5
-13 10 0 5 -7 7 -15 3 -8 -3 -15 -1 -15 5 0 6 -4 8 -9 4 -5 -3 -12 -1 -16 5
-4 6 -11 8 -16 5 -5 -4 -9 -1 -9 4 0 6 -3 10 -7 9 -5 0 -17 2 -28 6 -11 5 -27
10 -35 14 -115 43 -170 57 -174 45z m1704 -4309 c14 -4 31 -8 39 -10 38 -7
118 -37 131 -49 8 -8 20 -14 25 -14 22 -2 45 -13 45 -22 0 -5 8 -9 17 -9 9 0
24 -6 32 -13 9 -7 61 -39 116 -71 55 -31 107 -61 115 -66 105 -65 350 -151
475 -166 22 -2 62 -8 89 -12 l50 -7 -68 -54 c-58 -45 -158 -100 -184 -101 -4
0 -23 -5 -42 -12 -56 -19 -301 -16 -389 5 -186 45 -304 109 -451 247 -21 19
-50 46 -65 59 -31 26 -155 94 -155 85 0 -4 -6 -2 -12 4 -20 15 -128 11 -168
-7 -19 -8 -52 -26 -73 -39 l-39 -23 37 70 c21 39 42 71 48 71 6 0 8 3 4 6 -7
7 58 68 87 83 56 26 95 41 136 48 49 9 161 7 200 -3z m3665 -5 c113 -30 177
-83 238 -197 16 -29 27 -55 25 -57 -2 -3 -33 11 -69 30 -57 30 -72 34 -130 32
-90 -3 -190 -54 -289 -148 -40 -38 -77 -69 -81 -69 -5 0 -9 -3 -9 -8 0 -12
-121 -90 -182 -116 -64 -28 -213 -71 -268 -77 -99 -10 -295 -1 -347 18 -47 16
-148 65 -157 77 -6 7 -31 28 -56 47 l-44 34 49 7 c114 15 152 21 190 32 6 2
24 6 40 10 122 31 303 112 430 191 22 14 52 30 68 36 15 6 27 15 27 20 0 5 4
9 9 9 5 0 35 15 68 33 54 31 154 76 178 82 5 1 17 5 25 8 56 23 208 26 285 6z
m-2246 -3605 c95 -21 355 -29 481 -15 108 12 176 28 228 55 l30 16 14 -53 c7
-28 13 -95 13 -148 0 -90 -3 -100 -38 -171 -70 -143 -179 -222 -347 -254 -76
-14 -92 -14 -168 0 -167 30 -278 110 -348 250 -42 85 -53 180 -35 279 20 105
16 100 63 76 22 -11 70 -27 107 -35z"/>
<path d="M7970 3752 c0 -6 5 -14 10 -17 6 -3 10 -19 10 -35 0 -16 5 -32 11
-35 6 -4 8 -13 5 -21 -3 -7 -1 -16 4 -19 5 -3 7 -12 3 -20 -3 -8 -1 -15 3 -15
5 0 9 -10 10 -22 0 -13 4 -39 8 -58 4 -19 9 -46 11 -60 1 -14 4 -25 5 -25 1 0
3 -20 5 -45 2 -25 4 -46 5 -47 2 -2 4 -12 5 -23 1 -11 3 -21 4 -22 1 -2 3 -26
5 -53 1 -28 5 -56 10 -63 4 -7 2 -12 -4 -12 -6 0 -8 -5 -4 -12 10 -15 17 -118
18 -263 1 -60 6 -113 11 -117 7 -5 7 -8 0 -8 -6 0 -10 -28 -10 -63 0 -34 -2
-66 -5 -72 -2 -5 -5 -24 -6 -41 0 -17 -5 -37 -9 -44 -6 -9 -4 -11 5 -5 10 6
11 4 4 -6 -4 -8 -10 -21 -11 -29 -10 -60 -15 -99 -16 -122 -1 -16 -6 -28 -11
-28 -4 0 -6 -7 -2 -15 3 -8 1 -15 -3 -15 -5 0 -8 -8 -6 -17 1 -10 -1 -23 -6
-28 -4 -6 -11 -25 -14 -43 -3 -17 -14 -48 -25 -67 -24 -43 -9 -46 28 -4 15 17
35 40 45 50 9 10 14 19 10 19 -4 0 2 9 13 20 35 35 72 90 70 103 -1 5 7 13 17
18 9 6 15 14 12 20 -4 5 -1 9 5 9 6 0 9 4 5 9 -3 5 -1 12 5 16 9 6 70 129 74
150 1 6 4 15 7 20 7 11 33 87 34 97 0 3 3 10 8 14 4 4 7 18 7 31 0 12 6 23 13
23 8 0 7 4 -3 10 -8 5 -10 10 -4 10 6 0 11 6 11 13 1 6 4 30 8 52 4 22 8 51
10 65 2 14 4 25 5 25 2 0 3 26 5 57 1 32 4 60 7 63 3 4 2 22 -2 41 -5 19 -4
37 1 40 5 3 6 10 3 16 -4 6 -8 27 -9 48 -1 20 -4 41 -7 46 -3 5 -4 17 -3 27 2
9 0 17 -4 17 -4 0 -8 10 -9 23 -4 38 -8 52 -36 120 -6 15 -15 27 -19 27 -5 0
-7 6 -5 12 3 7 -6 21 -19 31 -13 10 -23 26 -23 34 0 9 -3 14 -6 11 -3 -4 -24
13 -48 35 -23 23 -61 58 -85 77 -25 19 -50 41 -58 48 -7 7 -13 11 -13 7 0 -3
-16 6 -35 21 -19 14 -35 22 -35 16z"/>
<path d="M2795 3730 c-10 -11 -24 -20 -31 -20 -7 0 -18 -8 -23 -17 -6 -10 -11
-15 -11 -11 0 9 -40 -25 -128 -112 -68 -66 -119 -140 -114 -162 1 -5 -2 -8 -6
-8 -5 0 -9 -6 -10 -12 -1 -7 -10 -52 -21 -101 -18 -80 -24 -153 -21 -262 2
-40 7 -90 10 -90 1 0 3 -16 6 -35 6 -48 12 -85 14 -85 1 0 4 -11 7 -25 6 -31
8 -41 16 -60 3 -8 11 -36 18 -62 7 -27 16 -48 20 -48 3 0 6 -6 6 -12 0 -7 8
-31 18 -53 10 -22 19 -42 20 -45 5 -17 33 -71 52 -102 13 -21 20 -38 17 -38
-4 0 3 -8 14 -19 12 -10 22 -22 22 -27 0 -12 95 -136 137 -179 12 -13 19 -26
15 -31 -4 -4 -2 -4 5 -1 8 5 5 22 -10 60 -12 28 -26 55 -31 58 -4 4 -3 8 4 11
10 3 9 7 -1 18 -8 8 -14 22 -14 30 1 8 -4 31 -10 50 -6 19 -11 42 -10 50 1 8
-1 20 -4 25 -8 14 -20 101 -25 180 -1 11 -5 25 -8 30 -4 6 -3 17 2 25 5 8 5
21 1 29 -11 20 -8 322 2 339 5 7 4 12 -2 12 -7 0 -7 8 -1 25 7 18 6 25 -3 25
-8 0 -9 2 -1 8 6 4 11 26 12 50 0 23 1 43 2 45 2 1 4 22 5 47 2 25 4 45 5 45
1 0 4 18 6 40 10 81 12 100 14 100 2 0 6 29 11 83 2 17 7 32 11 32 4 0 5 9 3
20 -2 11 0 22 4 25 5 2 7 16 6 30 -2 14 1 25 7 25 5 0 8 6 6 12 -3 7 3 34 13
60 19 53 8 65 -26 28z"/>
</g>
</svg>
