<svg width="90" height="90" viewBox="0 0 90 90" fill="none" xmlns="http://www.w3.org/2000/svg">
<g clip-path="url(#clip0_11_180)">
<path d="M89.1231 39.4429C85.8 15.2429 64.3846 -1.69707 40.0154 1.09524C19.7077 3.32908 3.27695 19.8968 1.06157 40.3737C-0.230738 52.6598 3.27695 64.5737 11.0308 73.8814C14.9077 78.5352 19.5231 82.2583 24.877 85.0506C30.0462 87.8429 35.9539 89.5183 41.8616 89.8906C42.4154 89.8906 42.7846 89.8906 43.3385 89.8906C45.7385 89.8906 47.9539 89.3322 49.8 88.5875C52.5693 87.2845 54.4154 85.2368 54.9693 83.0029C55.7077 79.466 53.6769 75.9291 51.8308 73.5091C50.7231 72.206 50.3539 70.5306 50.9077 69.2275C52.7539 63.0845 63.8308 66.4352 63.8308 66.4352H64.2C78.2308 67.9245 84.6923 60.4783 87.4616 53.9629C89.1231 49.8675 89.6769 44.8414 89.1231 39.4429ZM24.6923 67.7383C20.6308 67.7383 17.3077 64.3875 17.3077 60.2922C17.3077 56.1968 20.6308 52.846 24.6923 52.846C28.7539 52.846 32.077 56.1968 32.077 60.2922C32.077 64.3875 28.7539 67.7383 24.6923 67.7383ZM24.6923 41.6768C20.6308 41.6768 17.3077 38.326 17.3077 34.2306C17.3077 30.1352 20.6308 26.7845 24.6923 26.7845C28.7539 26.7845 32.077 30.1352 32.077 34.2306C32.077 38.326 28.7539 41.6768 24.6923 41.6768ZM45 24.9229C40.9385 24.9229 37.6154 21.5722 37.6154 17.4768C37.6154 13.3814 40.9385 10.0306 45 10.0306C49.0616 10.0306 52.3846 13.3814 52.3846 17.4768C52.3846 21.5722 49.0616 24.9229 45 24.9229ZM65.3077 41.6768C61.2462 41.6768 57.9231 38.326 57.9231 34.2306C57.9231 30.1352 61.2462 26.7845 65.3077 26.7845C69.3692 26.7845 72.6923 30.1352 72.6923 34.2306C72.6923 38.326 69.3692 41.6768 65.3077 41.6768Z" fill="#33ECCD"/>
</g>
<defs>
<clipPath id="clip0_11_180">
<rect width="90" height="90" fill="white"/>
</clipPath>
</defs>
</svg>
