<svg width="90" height="90" viewBox="0 0 90 90" fill="none" xmlns="http://www.w3.org/2000/svg">
<g clip-path="url(#clip0_10_169)">
<path d="M81.9231 6.23071H54.4154C55.8923 8.07687 57 10.2923 57.7385 12.5076C58.1077 13.6153 58.2923 14.5384 58.2923 15.4615H89.3077V13.6153C89.3077 9.55379 85.9846 6.23071 81.9231 6.23071Z" fill="#33ECCD"/>
<path d="M35.9539 8.99994L36.1385 8.81533C36.8769 8.26148 37.2462 7.89225 37.2462 7.70764C37.0616 7.52302 36.8769 7.15379 36.5077 6.78456C36.3231 6.59994 36.1385 6.41533 35.9539 6.23071H8.07694C4.0154 6.23071 0.692322 9.55379 0.692322 13.6153V15.4615H32.4462C33.1846 12.5076 34.6616 10.2923 35.9539 8.99994Z" fill="#33ECCD"/>
<path d="M36.1385 58.1077L34.4769 26.5384C32.8154 23.9538 32.0769 21.3692 32.0769 19.1538H0.692322V59.7692H36.3231C36.3231 59.2154 36.1385 58.6615 36.1385 58.1077Z" fill="#33ECCD"/>
<path d="M56.4462 26.1692L54.7846 58.1077C54.7846 58.6615 54.7847 59.2154 54.6 59.7692H89.3077V19.1538H58.2923C58.1077 22.1077 57.1847 24.6923 56.4462 26.1692Z" fill="#33ECCD"/>
<path d="M45.5539 67.1537C42.4154 67.1537 39.8308 65.6768 38.1692 63.4614H0.692322V70.846C0.692322 74.9076 4.0154 78.2307 8.07694 78.2307H32.2616L27.2769 85.6153H24.6923C23.5846 85.6153 22.8462 86.3537 22.8462 87.4614C22.8462 88.5691 23.5846 89.3076 24.6923 89.3076H28.3846H61.6154H65.3077C66.4154 89.3076 67.1539 88.5691 67.1539 87.4614C67.1539 86.3537 66.4154 85.6153 65.3077 85.6153H62.5385L57.5539 78.2307H81.9231C85.9846 78.2307 89.3077 74.9076 89.3077 70.846V63.4614H52.9385C51.2769 65.6768 48.5077 67.1537 45.5539 67.1537ZM41.3077 68.9999H48.6923C49.6154 68.9999 50.5385 69.7383 50.5385 70.846C50.5385 71.7691 49.6154 72.6922 48.6923 72.6922H41.3077C40.2 72.6922 39.4616 71.7691 39.4616 70.846C39.4616 69.7383 40.2 68.9999 41.3077 68.9999Z" fill="#33ECCD"/>
<path d="M40.0154 30.2307C39.4615 30.2307 38.9077 30.0461 38.5385 30.0461L39.8308 57.923C39.8308 61.0614 42.4154 63.4614 45.5538 63.4614C48.6923 63.4614 51.0923 61.0614 51.2769 57.923L52.7538 29.8615C52.2 30.0461 51.6461 30.0461 51.0923 30.0461H40.0154V30.2307Z" fill="#33ECCD"/>
<path d="M41.1231 7.7076C41.1231 8.99991 40.2 10.2922 38.5385 11.7691C36.3231 13.7999 33.5539 19.1538 38.5385 25.7999C38.9077 26.3538 39.4615 26.5384 40.0154 26.5384H51.0923C51.8308 26.5384 52.3846 26.1691 52.7539 25.6153C52.9385 25.4307 56.2615 20.0768 54.2308 13.4307C52.5692 8.26144 48.3231 4.01529 41.1231 0.692214C40.2 0.322984 39.2769 0.692214 38.7231 1.43068C38.1692 2.16914 38.3539 3.27683 39.0923 3.83068C39.0923 4.01529 41.1231 5.67683 41.1231 7.7076Z" fill="#33ECCD"/>
</g>
<defs>
<clipPath id="clip0_10_169">
<rect width="90" height="90" fill="white"/>
</clipPath>
</defs>
</svg>
