<svg width="90" height="90" viewBox="0 0 90 90" fill="none" xmlns="http://www.w3.org/2000/svg">
<g clip-path="url(#clip0_10_145)">
<path d="M63.4616 83.0461H26.5385L23.2154 87.5877C22.8462 88.1554 22.6616 88.9123 23.0308 89.48C23.4 90.0477 23.9539 90.4261 24.6923 90.4261H65.3077C66.0462 90.4261 66.6 90.0477 66.9693 89.48C67.3385 88.9123 67.1539 87.9661 66.7846 87.5877L63.4616 83.0461Z" fill="#33ECCD"/>
<path d="M0.692322 66.0154C0.692322 69.2323 3.09232 71.6923 6.23078 71.6923H28.3846V79.2615H61.6154V71.6923H83.7692C86.9077 71.6923 89.3077 69.2323 89.3077 66.0154V56.5538H0.692322V66.0154ZM39.4616 60.3384H50.5385C51.6462 60.3384 52.3846 61.0954 52.3846 62.2308C52.3846 63.1769 51.6462 64.1231 50.5385 64.1231H39.4616C38.3539 64.1231 37.6154 63.1769 37.6154 62.2308C37.6154 61.0954 38.3539 60.3384 39.4616 60.3384Z" fill="#33ECCD"/>
<path d="M83.7692 -0.215454H6.23078C3.09232 -0.215454 0.692322 2.24455 0.692322 5.46147V52.7692H89.3077V5.46147C89.3077 2.24455 86.9077 -0.215454 83.7692 -0.215454ZM35.7692 9.24608H54.2308V28.1692H35.7692V9.24608ZM11.7692 9.24608H30.2308V28.1692H11.7692V9.24608ZM76.3846 47.0922H13.6154C12.5077 47.0922 11.7692 46.1461 11.7692 45.1999C11.7692 44.0645 12.5077 43.3076 13.6154 43.3076H76.3846C77.4923 43.3076 78.2308 44.0645 78.2308 45.1999C78.2308 46.1461 77.4923 47.0922 76.3846 47.0922ZM76.3846 37.6307H13.6154C12.5077 37.6307 11.7692 36.6845 11.7692 35.7384C11.7692 34.603 12.5077 33.8461 13.6154 33.8461H76.3846C77.4923 33.8461 78.2308 34.603 78.2308 35.7384C78.2308 36.6845 77.4923 37.6307 76.3846 37.6307ZM78.2308 28.1692H59.7692V9.24608H78.2308V28.1692Z" fill="#33ECCD"/>
</g>
<defs>
<clipPath id="clip0_10_145">
<rect width="90" height="90" fill="white"/>
</clipPath>
</defs>
</svg>
