<svg width="90" height="90" viewBox="0 0 90 90" fill="none" xmlns="http://www.w3.org/2000/svg">
<g clip-path="url(#clip0_11_191)">
<path d="M3.46154 19.2839H18.2308C19.1539 19.2839 20.0769 18.5435 20.0769 17.4329V2.62476C20.0769 1.88436 19.7077 1.14395 18.9692 0.958849C18.2308 0.773748 17.4923 0.773748 16.9385 1.32905L2.16924 16.1371C1.61539 16.6925 1.43078 17.4329 1.80001 18.1733C1.98462 18.9137 2.72308 19.2839 3.46154 19.2839Z" fill="#33ECCD"/>
<path d="M55.7077 34.8309L27.0923 50.7496H47.7692C48.5077 48.5284 50.5384 47.0475 52.9384 47.0475C56.0769 47.0475 58.4769 49.4539 58.4769 52.6006C58.4769 55.7473 56.0769 58.1536 52.9384 58.1536C50.5384 58.1536 48.5077 56.6728 47.7692 54.4516H27.0923L55.7077 70.3703C56.0769 70.5554 56.2615 70.5554 56.6308 70.5554C56.8154 70.5554 57.1846 70.5554 57.3692 70.3703L70.1077 65.0024V40.0137L57.3692 34.6458C56.6308 34.4607 56.0769 34.6458 55.7077 34.8309Z" fill="#33ECCD"/>
<path d="M56.4474 74.2575C55.5243 74.2575 54.6012 74.0724 53.6781 73.5171L19.3397 54.4517L16.0166 52.6007L19.3397 50.7497L53.8627 31.6842C54.6012 31.314 55.5243 30.9438 56.632 30.9438C57.3704 30.9438 58.1089 31.1289 58.8474 31.314L68.2627 35.2012V6.32538C68.2627 3.17865 65.8627 0.772339 62.7243 0.772339H23.4012C23.5858 1.32764 23.7704 2.06805 23.7704 2.62335V17.4314C23.7704 20.5782 21.3704 22.9845 18.232 22.9845H3.46273C2.90888 22.9845 2.17042 22.7994 1.61658 22.6143V84.0679C1.61658 87.0295 4.01658 89.6209 7.15504 89.6209H62.5397C65.6781 89.6209 68.0781 87.0295 68.0781 84.0679V70.0002L58.6627 73.8873C57.9243 74.2575 57.1858 74.2575 56.4474 74.2575ZM38.5397 30.3885H42.232V34.0906H38.5397V30.3885ZM27.4627 30.3885H31.155V34.0906H27.4627V30.3885ZM18.232 56.3027V60.0047H14.5397V56.3027H18.232ZM18.232 48.8987H14.5397V45.1966H18.232V48.8987ZM10.8473 26.6865H21.9243V37.7926H10.8473V26.6865ZM21.9243 78.5148H10.8473V67.4088H21.9243V78.5148ZM31.155 74.8128H27.4627V71.1108H31.155V74.8128ZM42.232 74.8128H38.5397V71.1108H42.232V74.8128Z" fill="#33ECCD"/>
<path d="M87.8307 40.1989C87.4615 39.8287 86.9077 39.6436 86.3538 39.6436L73.6154 41.3095V64.0769L86.3538 65.7428H86.5384C86.9077 65.7428 87.4615 65.5577 87.8307 65.1875C88.2 64.8173 88.3846 64.262 88.3846 63.7067V41.4946C88.3846 40.9393 88.2 40.384 87.8307 40.1989Z" fill="#33ECCD"/>
</g>
<defs>
<clipPath id="clip0_11_191">
<rect width="90" height="90" fill="white"/>
</clipPath>
</defs>
</svg>
