<svg width="90" height="90" viewBox="0 0 90 90" fill="none" xmlns="http://www.w3.org/2000/svg">
<g clip-path="url(#clip0_10_152)">
<path d="M55.3038 59.2999L40.3 51.9199C39.7577 51.5599 39.0346 51.7399 38.4923 51.9199C37.95 52.2799 37.5884 52.8199 37.5884 53.5399V68.4799C37.5884 69.1999 37.95 69.7399 38.4923 70.0999C38.8538 70.2799 39.2154 70.4599 39.3961 70.4599C39.7577 70.4599 39.9384 70.4599 40.3 70.2799L55.3038 62.8999C56.0269 62.5399 56.3884 61.9999 56.3884 61.2799C56.2077 60.1999 55.8461 59.6599 55.3038 59.2999Z" fill="#33ECCD"/>
<path d="M44.6385 25.8198H30.1769L27.8269 28.6998L23.4885 33.7398H37.95L44.6385 25.8198Z" fill="#33ECCD"/>
<path d="M13.0038 29.2398L12.4615 29.7798H11.7385H1.79614V33.7398H18.2461L25.1154 25.8198H16.4385L13.0038 29.2398Z" fill="#33ECCD"/>
<path d="M64.3423 25.8198H49.8808L43.1923 33.7398H57.4731L64.3423 25.8198Z" fill="#33ECCD"/>
<path d="M12.4615 14.1199L13.0038 14.6599L14.9923 16.6399L26.3808 15.7399L20.4154 8.71992L20.2346 8.53992L1.79614 9.97992V14.1199H11.7385H12.4615Z" fill="#33ECCD"/>
<path d="M88.2039 33.7399V26.8999L82.2385 33.7399H88.2039Z" fill="#33ECCD"/>
<path d="M83.8654 25.8198H69.4039L62.7154 33.7398H77.1769L83.8654 25.8198Z" fill="#33ECCD"/>
<path d="M14.2692 22.5798L14.8115 21.8598L10.8346 18.0798H1.79614V25.8198H10.8346L14.2692 22.5798Z" fill="#33ECCD"/>
<path d="M79.7076 3.31985L85.8538 10.3399L86.0346 10.5199L88.2038 10.3399V2.59985L79.7076 3.31985Z" fill="#33ECCD"/>
<path d="M31.2615 15.3799L44.6384 14.1199L38.673 7.09992L38.4923 6.91992L24.9346 7.99992L31.0807 15.0199L31.2615 15.3799Z" fill="#33ECCD"/>
<path d="M49.5192 13.7598L62.8962 12.4998L56.75 5.2998L43.1923 6.5598L49.3385 13.5798L49.5192 13.7598Z" fill="#33ECCD"/>
<path d="M74.1038 37.3398H59.2808H54.5808H39.5769H34.8769H20.0538H15.3538H1.79614V83.4198C1.79614 86.4798 4.32691 88.9998 7.39999 88.9998H82.4192C85.4923 88.9998 88.0231 86.4798 88.0231 83.4198V37.3398H78.8038H74.1038ZM45 79.6398C34.6961 79.6398 26.2 71.1798 26.2 60.9198C26.2 50.6598 34.6961 42.3798 45 42.3798C55.3038 42.3798 63.8 50.8398 63.8 61.0998C63.8 71.3598 55.3038 79.6398 45 79.6398Z" fill="#33ECCD"/>
<path d="M81.1539 11.0598L75.1885 4.03981L75.0077 3.67981L61.45 4.93981L67.7769 12.1398L81.1539 11.0598Z" fill="#33ECCD"/>
</g>
<defs>
<clipPath id="clip0_10_152">
<rect width="90" height="90" fill="white"/>
</clipPath>
</defs>
</svg>
