<svg width="90" height="90" viewBox="0 0 90 90" fill="none" xmlns="http://www.w3.org/2000/svg">
<g clip-path="url(#clip0_11_184)">
<path d="M45.8943 24.2352V46.7583C48.1473 47.4968 49.6494 49.5275 49.6494 51.9275C49.6494 55.066 47.2086 57.466 44.0167 57.466C40.8248 57.466 38.384 55.066 38.384 51.9275C38.384 49.5275 39.8861 47.4968 42.1391 46.7583V24.2352L22.237 56.5429C21.8614 57.0968 21.8614 58.0198 22.237 58.5737L30.4982 70.9429H57.3474L65.6087 58.5737C65.9842 58.0198 65.9842 57.2814 65.6087 56.5429L45.8943 24.2352Z" fill="#33ECCD"/>
<path d="M56.0331 74.6353H31.8126L27.1187 87.0045C27.1187 87.5583 27.1187 88.1122 27.4942 88.666C27.8697 89.2199 28.4329 89.4045 28.9962 89.4045H59.0372C59.6005 89.4045 60.1638 89.0353 60.5393 88.666C60.9148 88.2968 60.9148 87.5583 60.7271 87.0045L56.0331 74.6353Z" fill="#33ECCD"/>
<path d="M77.8129 4.48137C76.8741 4.48137 75.9353 5.40445 75.9353 6.32752H51.527V0.789062H36.5065V6.32752H12.0981C12.0981 5.40445 11.1594 4.48137 10.2206 4.48137C9.2818 4.48137 8.34302 5.40445 8.34302 6.32752V10.0198C8.34302 10.9429 9.2818 11.866 10.2206 11.866C11.1594 11.866 12.0981 10.9429 12.0981 10.0198H31.6248C25.4288 14.0814 21.486 20.9121 21.486 28.4814C21.486 29.4044 22.4247 30.3275 23.3635 30.3275C24.3023 30.3275 25.2411 29.4044 25.2411 28.4814C25.2411 21.0968 29.7472 14.4506 36.5065 11.4968V15.5583H51.527V11.4968C58.2862 14.4506 62.7924 21.0968 62.7924 28.4814C62.7924 29.4044 63.7312 30.3275 64.6699 30.3275C65.6087 30.3275 66.5475 29.4044 66.5475 28.4814C66.5475 20.9121 62.6046 14.0814 56.4086 10.0198H75.9353C75.9353 10.9429 76.8741 11.866 77.8129 11.866C78.7517 11.866 79.6904 10.9429 79.6904 10.0198V6.32752C79.6904 5.40445 78.7517 4.48137 77.8129 4.48137Z" fill="#33ECCD"/>
</g>
<defs>
<clipPath id="clip0_11_184">
<rect width="90" height="90" fill="white"/>
</clipPath>
</defs>
</svg>
